<svg viewBox="0 0 451 163" xmlns="http://www.w3.org/2000/svg" fill-rule="evenodd" clip-rule="evenodd" stroke-linejoin="round" stroke-miterlimit="1.414">
  <path d="M96.688 162.881c-9.088 0-16.256-2.208-21.504-6.624-5.248-4.416-8.032-10.912-8.352-19.488-.064-1.792-.096-4.544-.096-8.256 0-3.712.032-6.496.096-8.352.256-8.448 3.056-14.96 8.4-19.536 5.344-4.576 12.496-6.864 21.456-6.864 8.896 0 16.016 2.288 21.36 6.864 5.344 4.576 8.144 11.088 8.4 19.536.128 3.712.192 6.496.192 8.352 0 1.92-.064 4.672-.192 8.256-.32 8.576-3.088 15.072-8.304 19.488s-12.368 6.624-21.456 6.624zm347.52-48.192h-13.44c-1.408 0-2.496-.576-3.264-1.728-.384-1.344-1.376-2.48-2.976-3.408-1.6-.928-3.584-1.392-5.952-1.392-2.688 0-4.768.48-6.24 1.44-1.472.96-2.208 2.368-2.208 4.224 0 1.856.96 3.312 2.88 4.368 1.92 1.056 5.504 2.128 10.752 3.216 6.016 1.088 10.8 2.448 14.352 4.08 3.552 1.632 6.176 3.744 7.872 6.336 1.696 2.592 2.544 5.872 2.544 9.84 0 4.352-1.248 8.128-3.744 11.328-2.496 3.2-5.952 5.648-10.368 7.344-4.416 1.696-9.472 2.544-15.168 2.544-6.208 0-11.488-.896-15.84-2.688-4.352-1.792-7.648-4.16-9.888-7.104s-3.424-6.144-3.552-9.6c0-.576.208-1.056.624-1.44a2.119 2.119 0 0 1 1.488-.576h12.768c.768 0 1.392.128 1.872.384.48.256 1.008.704 1.584 1.344.832 1.536 2.128 2.8 3.888 3.792 1.76.992 4.112 1.488 7.056 1.488 3.456 0 6.112-.528 7.968-1.584 1.856-1.056 2.784-2.512 2.784-4.368 0-1.344-.48-2.448-1.44-3.312-.96-.864-2.496-1.632-4.608-2.304-2.112-.672-5.152-1.424-9.12-2.256-7.744-1.536-13.536-3.872-17.376-7.008-3.84-3.136-5.76-7.616-5.76-13.44 0-3.968 1.104-7.504 3.312-10.608 2.208-3.104 5.344-5.52 9.408-7.248 4.064-1.728 8.784-2.592 14.16-2.592 5.632 0 10.512.976 14.64 2.928s7.296 4.384 9.504 7.296c2.208 2.912 3.376 5.776 3.504 8.592 0 .576-.192 1.072-.576 1.488a1.877 1.877 0 0 1-1.44.624zm-426.24 47.232H4.816c-.64 0-1.2-.24-1.68-.72s-.72-1.04-.72-1.68V97.217c0-.704.224-1.296.672-1.776.448-.48 1.024-.72 1.728-.72h26.4c8.448 0 15.056 1.92 19.824 5.76 4.768 3.84 7.152 9.248 7.152 16.224 0 4.48-1.04 8.288-3.12 11.424-2.08 3.136-4.944 5.568-8.592 7.296l12.96 23.424c.192.384.288.736.288 1.056 0 .512-.192.976-.576 1.392a1.877 1.877 0 0 1-1.44.624H44.176c-1.856 0-3.168-.864-3.936-2.592l-10.56-20.832h-9.216v21.024c0 .704-.24 1.28-.72 1.728-.48.448-1.071.672-1.776.672zm152.448 0h-30.528c-.64 0-1.2-.24-1.68-.72s-.72-1.04-.72-1.68V97.217c0-.704.224-1.296.672-1.776.448-.48 1.024-.72 1.728-.72h29.664c8.128 0 14.176 1.664 18.144 4.992 3.968 3.328 5.952 8.064 5.952 14.208 0 3.072-.816 5.728-2.448 7.968-1.632 2.24-3.44 3.872-5.424 4.896 2.624 1.152 4.832 3.056 6.624 5.712 1.792 2.656 2.688 5.648 2.688 8.976 0 6.464-2.128 11.488-6.384 15.072-4.256 3.584-10.351 5.376-18.288 5.376zm83.424 0h-46.08c-.64 0-1.2-.24-1.68-.72s-.72-1.04-.72-1.68V97.217c0-.704.224-1.296.672-1.776.448-.48 1.024-.72 1.728-.72h45.312c.704 0 1.296.24 1.776.72s.72 1.072.72 1.776v9.504c0 .704-.24 1.28-.72 1.728-.48.448-1.072.672-1.776.672h-30.336v12.192h28.224c.704 0 1.296.24 1.776.72s.72 1.072.72 1.776v8.736c0 .704-.24 1.296-.72 1.776s-1.072.72-1.776.72h-28.224v12.48h31.104c.704 0 1.296.24 1.776.72s.72 1.072.72 1.776v9.504c0 .704-.24 1.28-.72 1.728-.48.448-1.071.672-1.776.672zm28.704 0h-13.152c-.64 0-1.2-.24-1.68-.72s-.72-1.04-.72-1.68V97.217c0-.704.224-1.296.672-1.776.448-.48 1.024-.72 1.728-.72h26.4c8.448 0 15.056 1.92 19.824 5.76 4.768 3.84 7.152 9.248 7.152 16.224 0 4.48-1.04 8.288-3.12 11.424-2.08 3.136-4.944 5.568-8.592 7.296l12.96 23.424c.192.384.288.736.288 1.056 0 .512-.192.976-.576 1.392a1.877 1.877 0 0 1-1.44.624h-13.536c-1.856 0-3.168-.864-3.936-2.592l-10.56-20.832h-9.216v21.024c0 .704-.24 1.28-.72 1.728-.48.448-1.071.672-1.776.672zm81.12 0H350.32c-.704 0-1.296-.224-1.776-.672-.48-.448-.72-1.024-.72-1.728v-49.152h-16.896c-.704 0-1.296-.224-1.776-.672-.48-.448-.72-1.024-.72-1.728V97.217c0-.704.24-1.296.72-1.776s1.072-.72 1.776-.72h52.128c.704 0 1.296.24 1.776.72s.72 1.072.72 1.776v10.752c0 .704-.24 1.28-.72 1.728-.48.448-1.072.672-1.776.672H366.16v49.152c0 .704-.24 1.28-.72 1.728-.48.448-1.071.672-1.776.672zM168.4 133.889h-12.864v15.072H168.4c2.496 0 4.432-.72 5.808-2.16 1.376-1.44 2.064-3.216 2.064-5.328 0-2.176-.704-3.984-2.112-5.424-1.408-1.44-3.327-2.16-5.76-2.16zm-71.712 14.592c3.328 0 5.984-1.008 7.968-3.024s3.04-5.104 3.168-9.264c.128-3.712.192-6.368.192-7.968 0-1.6-.064-4.192-.192-7.776-.128-4.16-1.184-7.248-3.168-9.264-1.984-2.016-4.64-3.024-7.968-3.024-3.392 0-6.08 1.008-8.064 3.024s-3.04 5.104-3.168 9.264c-.064 1.792-.096 4.384-.096 7.776 0 3.456.032 6.112.096 7.968.128 4.16 1.184 7.248 3.168 9.264 1.984 2.016 4.672 3.024 8.064 3.024zM31.12 108.545H20.464v15.84H31.12c2.752 0 4.848-.688 6.288-2.064 1.44-1.376 2.16-3.28 2.16-5.712s-.72-4.384-2.16-5.856c-1.44-1.472-3.536-2.208-6.288-2.208zm264.576 0H285.04v15.84h10.656c2.752 0 4.848-.688 6.288-2.064 1.44-1.376 2.16-3.28 2.16-5.712s-.72-4.384-2.16-5.856c-1.44-1.472-3.535-2.208-6.288-2.208zm-128.16-.864h-12v13.632h12c2.368 0 4.192-.64 5.472-1.92 1.28-1.28 1.92-2.944 1.92-4.992 0-1.984-.624-3.6-1.872-4.848-1.248-1.248-3.087-1.872-5.52-1.872zM54.24 20.928H40.8c-1.408 0-2.496-.576-3.264-1.728-.384-1.344-1.376-2.48-2.976-3.408-1.6-.928-3.584-1.392-5.952-1.392-2.688 0-4.768.48-6.24 1.44-1.472.96-2.208 2.368-2.208 4.224 0 1.856.96 3.312 2.88 4.368 1.92 1.056 5.504 2.128 10.752 3.216 6.016 1.088 10.8 2.448 14.352 4.08 3.552 1.632 6.176 3.744 7.872 6.336 1.696 2.592 2.544 5.872 2.544 9.84 0 4.352-1.248 8.128-3.744 11.328-2.496 3.2-5.952 5.648-10.368 7.344-4.416 1.696-9.472 2.544-15.168 2.544-6.208 0-11.488-.896-15.84-2.688-4.352-1.792-7.648-4.16-9.888-7.104S.128 53.184 0 49.728c0-.576.208-1.056.624-1.44a2.119 2.119 0 0 1 1.488-.576H14.88c.768 0 1.392.128 1.872.384.48.256 1.008.704 1.584 1.344.832 1.536 2.128 2.8 3.888 3.792 1.76.992 4.112 1.488 7.056 1.488 3.456 0 6.112-.528 7.968-1.584 1.856-1.056 2.784-2.512 2.784-4.368 0-1.344-.48-2.448-1.44-3.312-.96-.864-2.496-1.632-4.608-2.304-2.112-.672-5.152-1.424-9.12-2.256-7.744-1.536-13.536-3.872-17.376-7.008-3.84-3.136-5.76-7.616-5.76-13.44 0-3.968 1.104-7.504 3.312-10.608 2.208-3.104 5.344-5.52 9.408-7.248C18.512.864 23.232 0 28.608 0c5.632 0 10.512.976 14.64 2.928s7.296 4.384 9.504 7.296c2.208 2.912 3.376 5.776 3.504 8.592 0 .576-.192 1.072-.576 1.488a1.877 1.877 0 0 1-1.44.624zm265.44 4.416h-13.632c-.896 0-1.552-.176-1.968-.528-.416-.352-.784-1.008-1.104-1.968-.896-3.136-2.256-5.328-4.08-6.576-1.824-1.248-4.24-1.872-7.248-1.872-7.232 0-10.976 4.032-11.232 12.096-.064 1.728-.096 4.384-.096 7.968 0 3.584.032 6.304.096 8.16.256 8.064 4 12.096 11.232 12.096 2.944 0 5.36-.64 7.248-1.92 1.888-1.28 3.248-3.456 4.08-6.528.256-.96.608-1.616 1.056-1.968.448-.352 1.12-.528 2.016-.528h13.632c.576 0 1.072.192 1.488.576.416.384.624.864.624 1.44-.128 4.8-1.504 8.96-4.128 12.48-2.624 3.52-6.192 6.208-10.704 8.064-4.512 1.856-9.616 2.784-15.312 2.784-9.152 0-16.336-2.208-21.552-6.624-5.216-4.416-7.984-10.88-8.304-19.392-.064-1.728-.096-4.544-.096-8.448 0-3.968.032-6.848.096-8.64.32-8.32 3.12-14.736 8.4-19.248C275.472 2.256 282.624 0 291.648 0c5.696 0 10.8.928 15.312 2.784 4.512 1.856 8.08 4.544 10.704 8.064 2.624 3.52 4 7.68 4.128 12.48 0 .576-.208 1.056-.624 1.44a2.117 2.117 0 0 1-1.488.576zm89.088 42.816h-13.152c-.64 0-1.2-.24-1.68-.72s-.72-1.04-.72-1.68V3.456c0-.704.224-1.296.672-1.776.448-.48 1.024-.72 1.728-.72h26.4c8.448 0 15.056 1.92 19.824 5.76 4.768 3.84 7.152 9.248 7.152 16.224 0 4.48-1.04 8.288-3.12 11.424-2.08 3.136-4.944 5.568-8.592 7.296l12.96 23.424c.192.384.288.736.288 1.056 0 .512-.192.976-.576 1.392a1.877 1.877 0 0 1-1.44.624h-13.536c-1.856 0-3.168-.864-3.936-2.592l-10.56-20.832h-9.216V65.76c0 .704-.24 1.28-.72 1.728-.48.448-1.071.672-1.776.672zM84 68.16H70.176c-.64 0-1.2-.24-1.68-.72s-.72-1.04-.72-1.68V3.456c0-.704.224-1.296.672-1.776.448-.48 1.024-.72 1.728-.72h27.168c8.32 0 14.848 1.888 19.584 5.664 4.736 3.776 7.104 9.312 7.104 16.608 0 7.296-2.368 12.752-7.104 16.368-4.736 3.616-11.264 5.424-19.584 5.424H86.4V65.76c0 .64-.224 1.2-.672 1.68-.448.48-1.023.72-1.728.72zm97.44 0h-46.08c-.64 0-1.2-.24-1.68-.72s-.72-1.04-.72-1.68V3.456c0-.704.224-1.296.672-1.776.448-.48 1.024-.72 1.728-.72h45.312c.704 0 1.296.24 1.776.72s.72 1.072.72 1.776v9.504c0 .704-.24 1.28-.72 1.728-.48.448-1.071.672-1.776.672h-30.336v12.192h28.224c.705 0 1.296.24 1.776.72s.72 1.072.72 1.776v8.736c0 .704-.24 1.296-.72 1.776s-1.071.72-1.776.72h-28.224v12.48h31.104c.705 0 1.296.24 1.776.72s.72 1.072.72 1.776v9.504c0 .704-.24 1.28-.72 1.728-.48.448-1.071.672-1.776.672zm27.744 0h-12.192c-.64 0-1.2-.24-1.68-.72s-.72-1.04-.72-1.68V3.456c0-.704.224-1.296.672-1.776.448-.48 1.024-.72 1.728-.72h10.848c1.472 0 2.56.608 3.264 1.824l22.656 35.808V3.456c0-.704.224-1.296.672-1.776.448-.48 1.024-.72 1.728-.72h12.192c.704 0 1.28.24 1.728.72.448.48.672 1.072.672 1.776v62.208c0 .704-.224 1.296-.672 1.776-.448.48-1.023.72-1.728.72h-10.848c-1.472 0-2.56-.608-3.264-1.824l-22.56-34.368V65.76c0 .704-.24 1.28-.72 1.728-.48.448-1.071.672-1.776.672zm170.88 0h-46.08c-.64 0-1.2-.24-1.68-.72s-.72-1.04-.72-1.68V3.456c0-.704.224-1.296.672-1.776.448-.48 1.024-.72 1.728-.72h45.312c.704 0 1.296.24 1.776.72s.72 1.072.72 1.776v9.504c0 .704-.24 1.28-.72 1.728-.48.448-1.072.672-1.776.672H348.96v12.192h28.224c.704 0 1.296.24 1.776.72s.72 1.072.72 1.776v8.736c0 .704-.24 1.296-.72 1.776s-1.072.72-1.776.72H348.96v12.48h31.104c.704 0 1.296.24 1.776.72s.72 1.072.72 1.776v9.504c0 .704-.24 1.28-.72 1.728-.48.448-1.071.672-1.776.672zm-283.2-53.376H86.112v16.512h10.752c2.624 0 4.688-.688 6.192-2.064 1.504-1.376 2.256-3.408 2.256-6.096 0-2.496-.688-4.512-2.064-6.048-1.376-1.536-3.504-2.304-6.384-2.304zm325.056 0h-10.656v15.84h10.656c2.752 0 4.848-.688 6.288-2.064 1.44-1.376 2.16-3.28 2.16-5.712s-.72-4.384-2.16-5.856c-1.44-1.472-3.535-2.208-6.288-2.208z" fill="#0da8e3"/>
</svg>
